<svg class="main-svg" xmlns="http://www.w3.org/2000/svg" xmlns:xlink="http://www.w3.org/1999/xlink" width="1000" height="600" style="" viewBox="0 0 1000 600"><rect x="0" y="0" width="1000" height="600" style="fill: rgb(255, 255, 255); fill-opacity: 1;"/><defs id="defs-259649"><g class="clips"><clipPath id="clip259649xyplot" class="plotclip"><rect width="840" height="420"/></clipPath><clipPath class="axesclip" id="clip259649x"><rect x="80" y="0" width="840" height="600"/></clipPath><clipPath class="axesclip" id="clip259649y"><rect x="0" y="100" width="1000" height="420"/></clipPath><clipPath class="axesclip" id="clip259649xy"><rect x="80" y="100" width="840" height="420"/></clipPath></g><g class="gradients"/><g class="patterns"/></defs><g class="bglayer"/><g class="layer-below"><g class="imagelayer"/><g class="shapelayer"/></g><g class="cartesianlayer"><g class="subplot xy"><g class="layer-subplot"><g class="shapelayer"/><g class="imagelayer"/></g><g class="gridlayer"><g class="x"/><g class="y"/></g><g class="zerolinelayer"/><path class="xlines-below"/><path class="ylines-below"/><g class="overlines-below"/><g class="xaxislayer-below"/><g class="yaxislayer-below"/><g class="overaxes-below"/><g class="plot" transform="translate(80,100)" clip-path="url(#clip259649xyplot)"><g class="scatterlayer mlayer"><g class="trace scatter trace2adf41" style="stroke-miterlimit: 2; opacity: 1;"><g class="fills"/><g class="errorbars"/><g class="lines"/><g class="points"><path class="point" transform="translate(276.87,323.2)" d="M6.6,0A6.6,6.6 0 1,1 0,-6.6A6.6,6.6 0 0,1 6.6,0Z" style="opacity: 0.7; stroke-width: 1px; fill: rgb(51, 102, 204); fill-opacity: 1; stroke: rgb(255, 255, 255); stroke-opacity: 1;"/><path class="point" transform="translate(692.76,100.55)" d="M0.98,0A0.98,0.98 0 1,1 0,-0.98A0.98,0.98 0 0,1 0.98,0Z" style="opacity: 0.7; stroke-width: 1px; fill: rgb(51, 102, 204); fill-opacity: 1; stroke: rgb(255, 255, 255); stroke-opacity: 1;"/><path class="point" transform="translate(320.15,181.57)" d="M14.33,0A14.33,14.33 0 1,1 0,-14.33A14.33,14.33 0 0,1 14.33,0Z" style="opacity: 0.7; stroke-width: 1px; fill: rgb(51, 102, 204); fill-opacity: 1; stroke: rgb(255, 255, 255); stroke-opacity: 1;"/><path class="point" transform="translate(345.51,211.94)" d="M4.39,0A4.39,4.39 0 1,1 0,-4.39A4.39,4.39 0 0,1 4.39,0Z" style="opacity: 0.7; stroke-width: 1px; fill: rgb(51, 102, 204); fill-opacity: 1; stroke: rgb(255, 255, 255); stroke-opacity: 1;"/><path class="point" transform="translate(474.71,119.27)" d="M42.43,0A42.43,42.43 0 1,1 0,-42.43A42.43,42.43 0 0,1 42.43,0Z" style="opacity: 0.7; stroke-width: 1px; fill: rgb(51, 102, 204); fill-opacity: 1; stroke: rgb(255, 255, 255); stroke-opacity: 1;"/><path class="point" transform="translate(727.74,54.54)" d="M3.09,0A3.09,3.09 0 1,1 0,-3.09A3.09,3.09 0 0,1 3.09,0Z" style="opacity: 0.7; stroke-width: 1px; fill: rgb(51, 102, 204); fill-opacity: 1; stroke: rgb(255, 255, 255); stroke-opacity: 1;"/><path class="point" transform="translate(389.08,177.11)" d="M38.93,0A38.93,38.93 0 1,1 0,-38.93A38.93,38.93 0 0,1 38.93,0Z" style="opacity: 0.7; stroke-width: 1px; fill: rgb(51, 102, 204); fill-opacity: 1; stroke: rgb(255, 255, 255); stroke-opacity: 1;"/><path class="point" transform="translate(433.74,135.45)" d="M17.47,0A17.47,17.47 0 1,1 0,-17.47A17.47,17.47 0 0,1 17.47,0Z" style="opacity: 0.7; stroke-width: 1px; fill: rgb(51, 102, 204); fill-opacity: 1; stroke: rgb(255, 255, 255); stroke-opacity: 1;"/><path class="point" transform="translate(578.11,133.25)" d="M9.74,0A9.74,9.74 0 1,1 0,-9.74A9.74,9.74 0 0,1 9.74,0Z" style="opacity: 0.7; stroke-width: 1px; fill: rgb(51, 102, 204); fill-opacity: 1; stroke: rgb(255, 255, 255); stroke-opacity: 1;"/><path class="point" transform="translate(462.11,213.19)" d="M6.13,0A6.13,6.13 0 1,1 0,-6.13A6.13,6.13 0 0,1 6.13,0Z" style="opacity: 0.7; stroke-width: 1px; fill: rgb(51, 102, 204); fill-opacity: 1; stroke: rgb(255, 255, 255); stroke-opacity: 1;"/><path class="point" transform="translate(673.94,64.78)" d="M2.96,0A2.96,2.96 0 1,1 0,-2.96A2.96,2.96 0 0,1 2.96,0Z" style="opacity: 0.7; stroke-width: 1px; fill: rgb(51, 102, 204); fill-opacity: 1; stroke: rgb(255, 255, 255); stroke-opacity: 1;"/><path class="point" transform="translate(700.13,51.78)" d="M13.19,0A13.19,13.19 0 1,1 0,-13.19A13.19,13.19 0 0,1 13.19,0Z" style="opacity: 0.7; stroke-width: 1px; fill: rgb(51, 102, 204); fill-opacity: 1; stroke: rgb(255, 255, 255); stroke-opacity: 1;"/><path class="point" transform="translate(463.42,122.26)" d="M2.87,0A2.87,2.87 0 1,1 0,-2.87A2.87,2.87 0 0,1 2.87,0Z" style="opacity: 0.7; stroke-width: 1px; fill: rgb(51, 102, 204); fill-opacity: 1; stroke: rgb(255, 255, 255); stroke-opacity: 1;"/><path class="point" transform="translate(336.63,158.92)" d="M5.64,0A5.64,5.64 0 1,1 0,-5.64A5.64,5.64 0 0,1 5.64,0Z" style="opacity: 0.7; stroke-width: 1px; fill: rgb(51, 102, 204); fill-opacity: 1; stroke: rgb(255, 255, 255); stroke-opacity: 1;"/><path class="point" transform="translate(663.11,79.64)" d="M8.18,0A8.18,8.18 0 1,1 0,-8.18A8.18,8.18 0 0,1 8.18,0Z" style="opacity: 0.7; stroke-width: 1px; fill: rgb(51, 102, 204); fill-opacity: 1; stroke: rgb(255, 255, 255); stroke-opacity: 1;"/><path class="point" transform="translate(748.98,86.88)" d="M1.85,0A1.85,1.85 0 1,1 0,-1.85A1.85,1.85 0 0,1 1.85,0Z" style="opacity: 0.7; stroke-width: 1px; fill: rgb(51, 102, 204); fill-opacity: 1; stroke: rgb(255, 255, 255); stroke-opacity: 1;"/><path class="point" transform="translate(565.48,126.05)" d="M2.31,0A2.31,2.31 0 1,1 0,-2.31A2.31,2.31 0 0,1 2.31,0Z" style="opacity: 0.7; stroke-width: 1px; fill: rgb(51, 102, 204); fill-opacity: 1; stroke: rgb(255, 255, 255); stroke-opacity: 1;"/><path class="point" transform="translate(586.66,110.31)" d="M5.82,0A5.82,5.82 0 1,1 0,-5.82A5.82,5.82 0 0,1 5.82,0Z" style="opacity: 0.7; stroke-width: 1px; fill: rgb(51, 102, 204); fill-opacity: 1; stroke: rgb(255, 255, 255); stroke-opacity: 1;"/><path class="point" transform="translate(417.42,162.38)" d="M1.98,0A1.98,1.98 0 1,1 0,-1.98A1.98,1.98 0 0,1 1.98,0Z" style="opacity: 0.7; stroke-width: 1px; fill: rgb(51, 102, 204); fill-opacity: 1; stroke: rgb(255, 255, 255); stroke-opacity: 1;"/><path class="point" transform="translate(272.99,195.52)" d="M8.07,0A8.07,8.07 0 1,1 0,-8.07A8.07,8.07 0 0,1 8.07,0Z" style="opacity: 0.7; stroke-width: 1px; fill: rgb(51, 102, 204); fill-opacity: 1; stroke: rgb(255, 255, 255); stroke-opacity: 1;"/><path class="point" transform="translate(290.63,183.51)" d="M6.28,0A6.28,6.28 0 1,1 0,-6.28A6.28,6.28 0 0,1 6.28,0Z" style="opacity: 0.7; stroke-width: 1px; fill: rgb(51, 102, 204); fill-opacity: 1; stroke: rgb(255, 255, 255); stroke-opacity: 1;"/><path class="point" transform="translate(657.61,100.52)" d="M2.09,0A2.09,2.09 0 1,1 0,-2.09A2.09,2.09 0 0,1 2.09,0Z" style="opacity: 0.7; stroke-width: 1px; fill: rgb(51, 102, 204); fill-opacity: 1; stroke: rgb(255, 255, 255); stroke-opacity: 1;"/><path class="point" transform="translate(396.47,171.62)" d="M15.2,0A15.2,15.2 0 1,1 0,-15.2A15.2,15.2 0 0,1 15.2,0Z" style="opacity: 0.7; stroke-width: 1px; fill: rgb(51, 102, 204); fill-opacity: 1; stroke: rgb(255, 255, 255); stroke-opacity: 1;"/><path class="point" transform="translate(421.08,128.18)" d="M11.15,0A11.15,11.15 0 1,1 0,-11.15A11.15,11.15 0 0,1 11.15,0Z" style="opacity: 0.7; stroke-width: 1px; fill: rgb(51, 102, 204); fill-opacity: 1; stroke: rgb(255, 255, 255); stroke-opacity: 1;"/><path class="point" transform="translate(653.96,120.56)" d="M6.14,0A6.14,6.14 0 1,1 0,-6.14A6.14,6.14 0 0,1 6.14,0Z" style="opacity: 0.7; stroke-width: 1px; fill: rgb(51, 102, 204); fill-opacity: 1; stroke: rgb(255, 255, 255); stroke-opacity: 1;"/><path class="point" transform="translate(748.56,70.2)" d="M2.49,0A2.49,2.49 0 1,1 0,-2.49A2.49,2.49 0 0,1 2.49,0Z" style="opacity: 0.7; stroke-width: 1px; fill: rgb(51, 102, 204); fill-opacity: 1; stroke: rgb(255, 255, 255); stroke-opacity: 1;"/><path class="point" transform="translate(447.66,123.23)" d="M5.27,0A5.27,5.27 0 1,1 0,-5.27A5.27,5.27 0 0,1 5.27,0Z" style="opacity: 0.7; stroke-width: 1px; fill: rgb(51, 102, 204); fill-opacity: 1; stroke: rgb(255, 255, 255); stroke-opacity: 1;"/><path class="point" transform="translate(454.06,111)" d="M5.13,0A5.13,5.13 0 1,1 0,-5.13A5.13,5.13 0 0,1 5.13,0Z" style="opacity: 0.7; stroke-width: 1px; fill: rgb(51, 102, 204); fill-opacity: 1; stroke: rgb(255, 255, 255); stroke-opacity: 1;"/><path class="point" transform="translate(688.28,81.2)" d="M5.62,0A5.62,5.62 0 1,1 0,-5.62A5.62,5.62 0 0,1 5.62,0Z" style="opacity: 0.7; stroke-width: 1px; fill: rgb(51, 102, 204); fill-opacity: 1; stroke: rgb(255, 255, 255); stroke-opacity: 1;"/><path class="point" transform="translate(524.34,135.69)" d="M9.42,0A9.42,9.42 0 1,1 0,-9.42A9.42,9.42 0 0,1 9.42,0Z" style="opacity: 0.7; stroke-width: 1px; fill: rgb(51, 102, 204); fill-opacity: 1; stroke: rgb(255, 255, 255); stroke-opacity: 1;"/><path class="point" transform="translate(388.55,110.26)" d="M10.79,0A10.79,10.79 0 1,1 0,-10.79A10.79,10.79 0 0,1 10.79,0Z" style="opacity: 0.7; stroke-width: 1px; fill: rgb(51, 102, 204); fill-opacity: 1; stroke: rgb(255, 255, 255); stroke-opacity: 1;"/><path class="point" transform="translate(414.62,116.05)" d="M2.34,0A2.34,2.34 0 1,1 0,-2.34A2.34,2.34 0 0,1 2.34,0Z" style="opacity: 0.7; stroke-width: 1px; fill: rgb(51, 102, 204); fill-opacity: 1; stroke: rgb(255, 255, 255); stroke-opacity: 1;"/><path class="point" transform="translate(380.26,191.11)" d="M5.51,0A5.51,5.51 0 1,1 0,-5.51A5.51,5.51 0 0,1 5.51,0Z" style="opacity: 0.7; stroke-width: 1px; fill: rgb(51, 102, 204); fill-opacity: 1; stroke: rgb(255, 255, 255); stroke-opacity: 1;"/></g><g class="text"/></g><g class="trace scatter traced842a1" style="stroke-miterlimit: 2; opacity: 1;"><g class="fills"/><g class="errorbars"/><g class="lines"/><g class="points"><path class="point" transform="translate(496.6,95.04)" d="M2.22,0A2.22,2.22 0 1,1 0,-2.22A2.22,2.22 0 0,1 2.22,0Z" style="opacity: 0.7; stroke-width: 1px; fill: rgb(220, 57, 18); fill-opacity: 1; stroke: rgb(255, 255, 255); stroke-opacity: 1;"/><path class="point" transform="translate(716.19,71.2)" d="M3.35,0A3.35,3.35 0 1,1 0,-3.35A3.35,3.35 0 0,1 3.35,0Z" style="opacity: 0.7; stroke-width: 1px; fill: rgb(220, 57, 18); fill-opacity: 1; stroke: rgb(255, 255, 255); stroke-opacity: 1;"/><path class="point" transform="translate(707.71,73.91)" d="M3.77,0A3.77,3.77 0 1,1 0,-3.77A3.77,3.77 0 0,1 3.77,0Z" style="opacity: 0.7; stroke-width: 1px; fill: rgb(220, 57, 18); fill-opacity: 1; stroke: rgb(255, 255, 255); stroke-opacity: 1;"/><path class="point" transform="translate(524.14,106.04)" d="M2.49,0A2.49,2.49 0 1,1 0,-2.49A2.49,2.49 0 0,1 2.49,0Z" style="opacity: 0.7; stroke-width: 1px; fill: rgb(220, 57, 18); fill-opacity: 1; stroke: rgb(255, 255, 255); stroke-opacity: 1;"/><path class="point" transform="translate(568.01,118.97)" d="M3.16,0A3.16,3.16 0 1,1 0,-3.16A3.16,3.16 0 0,1 3.16,0Z" style="opacity: 0.7; stroke-width: 1px; fill: rgb(220, 57, 18); fill-opacity: 1; stroke: rgb(255, 255, 255); stroke-opacity: 1;"/><path class="point" transform="translate(606.18,99.76)" d="M2.48,0A2.48,2.48 0 1,1 0,-2.48A2.48,2.48 0 0,1 2.48,0Z" style="opacity: 0.7; stroke-width: 1px; fill: rgb(220, 57, 18); fill-opacity: 1; stroke: rgb(255, 255, 255); stroke-opacity: 1;"/><path class="point" transform="translate(660.4,94.6)" d="M3.74,0A3.74,3.74 0 1,1 0,-3.74A3.74,3.74 0 0,1 3.74,0Z" style="opacity: 0.7; stroke-width: 1px; fill: rgb(220, 57, 18); fill-opacity: 1; stroke: rgb(255, 255, 255); stroke-opacity: 1;"/><path class="point" transform="translate(713.3,81.68)" d="M2.73,0A2.73,2.73 0 1,1 0,-2.73A2.73,2.73 0 0,1 2.73,0Z" style="opacity: 0.7; stroke-width: 1px; fill: rgb(220, 57, 18); fill-opacity: 1; stroke: rgb(255, 255, 255); stroke-opacity: 1;"/><path class="point" transform="translate(705.94,74.81)" d="M2.67,0A2.67,2.67 0 1,1 0,-2.67A2.67,2.67 0 0,1 2.67,0Z" style="opacity: 0.7; stroke-width: 1px; fill: rgb(220, 57, 18); fill-opacity: 1; stroke: rgb(255, 255, 255); stroke-opacity: 1;"/><path class="point" transform="translate(695.48,65.4)" d="M9.13,0A9.13,9.13 0 1,1 0,-9.13A9.13,9.13 0 0,1 9.13,0Z" style="opacity: 0.7; stroke-width: 1px; fill: rgb(220, 57, 18); fill-opacity: 1; stroke: rgb(255, 255, 255); stroke-opacity: 1;"/><path class="point" transform="translate(702.09,74.16)" d="M10.61,0A10.61,10.61 0 1,1 0,-10.61A10.61,10.61 0 0,1 10.61,0Z" style="opacity: 0.7; stroke-width: 1px; fill: rgb(220, 57, 18); fill-opacity: 1; stroke: rgb(255, 255, 255); stroke-opacity: 1;"/><path class="point" transform="translate(683.18,73.62)" d="M3.82,0A3.82,3.82 0 1,1 0,-3.82A3.82,3.82 0 0,1 3.82,0Z" style="opacity: 0.7; stroke-width: 1px; fill: rgb(220, 57, 18); fill-opacity: 1; stroke: rgb(255, 255, 255); stroke-opacity: 1;"/><path class="point" transform="translate(631.54,116.63)" d="M3.69,0A3.69,3.69 0 1,1 0,-3.69A3.69,3.69 0 0,1 3.69,0Z" style="opacity: 0.7; stroke-width: 1px; fill: rgb(220, 57, 18); fill-opacity: 1; stroke: rgb(255, 255, 255); stroke-opacity: 1;"/><path class="point" transform="translate(716.37,57.7)" d="M0.64,0A0.64,0.64 0 1,1 0,-0.64A0.64,0.64 0 0,1 0.64,0Z" style="opacity: 0.7; stroke-width: 1px; fill: rgb(220, 57, 18); fill-opacity: 1; stroke: rgb(255, 255, 255); stroke-opacity: 1;"/><path class="point" transform="translate(730.61,77.8)" d="M2.37,0A2.37,2.37 0 1,1 0,-2.37A2.37,2.37 0 0,1 2.37,0Z" style="opacity: 0.7; stroke-width: 1px; fill: rgb(220, 57, 18); fill-opacity: 1; stroke: rgb(255, 255, 255); stroke-opacity: 1;"/><path class="point" transform="translate(687.65,66.18)" d="M8.91,0A8.91,8.91 0 1,1 0,-8.91A8.91,8.91 0 0,1 8.91,0Z" style="opacity: 0.7; stroke-width: 1px; fill: rgb(220, 57, 18); fill-opacity: 1; stroke: rgb(255, 255, 255); stroke-opacity: 1;"/><path class="point" transform="translate(550.57,108.2)" d="M0.97,0A0.97,0.97 0 1,1 0,-0.97A0.97,0.97 0 0,1 0.97,0Z" style="opacity: 0.7; stroke-width: 1px; fill: rgb(220, 57, 18); fill-opacity: 1; stroke: rgb(255, 255, 255); stroke-opacity: 1;"/><path class="point" transform="translate(718.43,71.67)" d="M4.76,0A4.76,4.76 0 1,1 0,-4.76A4.76,4.76 0 0,1 4.76,0Z" style="opacity: 0.7; stroke-width: 1px; fill: rgb(220, 57, 18); fill-opacity: 1; stroke: rgb(255, 255, 255); stroke-opacity: 1;"/><path class="point" transform="translate(754.14,68.63)" d="M2.51,0A2.51,2.51 0 1,1 0,-2.51A2.51,2.51 0 0,1 2.51,0Z" style="opacity: 0.7; stroke-width: 1px; fill: rgb(220, 57, 18); fill-opacity: 1; stroke: rgb(255, 255, 255); stroke-opacity: 1;"/><path class="point" transform="translate(612.43,101.06)" d="M7.25,0A7.25,7.25 0 1,1 0,-7.25A7.25,7.25 0 0,1 7.25,0Z" style="opacity: 0.7; stroke-width: 1px; fill: rgb(220, 57, 18); fill-opacity: 1; stroke: rgb(255, 255, 255); stroke-opacity: 1;"/><path class="point" transform="translate(647.35,83.31)" d="M3.81,0A3.81,3.81 0 1,1 0,-3.81A3.81,3.81 0 0,1 3.81,0Z" style="opacity: 0.7; stroke-width: 1px; fill: rgb(220, 57, 18); fill-opacity: 1; stroke: rgb(255, 255, 255); stroke-opacity: 1;"/><path class="point" transform="translate(569.45,122.67)" d="M5.51,0A5.51,5.51 0 1,1 0,-5.51A5.51,5.51 0 0,1 5.51,0Z" style="opacity: 0.7; stroke-width: 1px; fill: rgb(220, 57, 18); fill-opacity: 1; stroke: rgb(255, 255, 255); stroke-opacity: 1;"/><path class="point" transform="translate(557.38,111.99)" d="M3.72,0A3.72,3.72 0 1,1 0,-3.72A3.72,3.72 0 0,1 3.72,0Z" style="opacity: 0.7; stroke-width: 1px; fill: rgb(220, 57, 18); fill-opacity: 1; stroke: rgb(255, 255, 255); stroke-opacity: 1;"/><path class="point" transform="translate(635.97,107.36)" d="M2.73,0A2.73,2.73 0 1,1 0,-2.73A2.73,2.73 0 0,1 2.73,0Z" style="opacity: 0.7; stroke-width: 1px; fill: rgb(220, 57, 18); fill-opacity: 1; stroke: rgb(255, 255, 255); stroke-opacity: 1;"/><path class="point" transform="translate(675.1,84.52)" d="M1.66,0A1.66,1.66 0 1,1 0,-1.66A1.66,1.66 0 0,1 1.66,0Z" style="opacity: 0.7; stroke-width: 1px; fill: rgb(220, 57, 18); fill-opacity: 1; stroke: rgb(255, 255, 255); stroke-opacity: 1;"/><path class="point" transform="translate(688.72,63.41)" d="M7.43,0A7.43,7.43 0 1,1 0,-7.43A7.43,7.43 0 0,1 7.43,0Z" style="opacity: 0.7; stroke-width: 1px; fill: rgb(220, 57, 18); fill-opacity: 1; stroke: rgb(255, 255, 255); stroke-opacity: 1;"/><path class="point" transform="translate(708.31,63.81)" d="M3.51,0A3.51,3.51 0 1,1 0,-3.51A3.51,3.51 0 0,1 3.51,0Z" style="opacity: 0.7; stroke-width: 1px; fill: rgb(220, 57, 18); fill-opacity: 1; stroke: rgb(255, 255, 255); stroke-opacity: 1;"/><path class="point" transform="translate(720.75,58.09)" d="M3.21,0A3.21,3.21 0 1,1 0,-3.21A3.21,3.21 0 0,1 3.21,0Z" style="opacity: 0.7; stroke-width: 1px; fill: rgb(220, 57, 18); fill-opacity: 1; stroke: rgb(255, 255, 255); stroke-opacity: 1;"/><path class="point" transform="translate(539.64,127.56)" d="M9.86,0A9.86,9.86 0 1,1 0,-9.86A9.86,9.86 0 0,1 9.86,0Z" style="opacity: 0.7; stroke-width: 1px; fill: rgb(220, 57, 18); fill-opacity: 1; stroke: rgb(255, 255, 255); stroke-opacity: 1;"/><path class="point" transform="translate(705.93,74.02)" d="M9.11,0A9.11,9.11 0 1,1 0,-9.11A9.11,9.11 0 0,1 9.11,0Z" style="opacity: 0.7; stroke-width: 1px; fill: rgb(220, 57, 18); fill-opacity: 1; stroke: rgb(255, 255, 255); stroke-opacity: 1;"/></g><g class="text"/></g><g class="trace scatter traced097c9" style="stroke-miterlimit: 2; opacity: 1;"><g class="fills"/><g class="errorbars"/><g class="lines"/><g class="points"><path class="point" transform="translate(502.33,123.89)" d="M6.75,0A6.75,6.75 0 1,1 0,-6.75A6.75,6.75 0 0,1 6.75,0Z" style="opacity: 0.7; stroke-width: 1px; fill: rgb(255, 153, 0); fill-opacity: 1; stroke: rgb(255, 255, 255); stroke-opacity: 1;"/><path class="point" transform="translate(470.68,330.88)" d="M4.12,0A4.12,4.12 0 1,1 0,-4.12A4.12,4.12 0 0,1 4.12,0Z" style="opacity: 0.7; stroke-width: 1px; fill: rgb(255, 153, 0); fill-opacity: 1; stroke: rgb(255, 255, 255); stroke-opacity: 1;"/><path class="point" transform="translate(324.45,232.9)" d="M3.32,0A3.32,3.32 0 1,1 0,-3.32A3.32,3.32 0 0,1 3.32,0Z" style="opacity: 0.7; stroke-width: 1px; fill: rgb(255, 153, 0); fill-opacity: 1; stroke: rgb(255, 255, 255); stroke-opacity: 1;"/><path class="point" transform="translate(587.81,274.9)" d="M1.5,0A1.5,1.5 0 1,1 0,-1.5A1.5,1.5 0 0,1 1.5,0Z" style="opacity: 0.7; stroke-width: 1px; fill: rgb(255, 153, 0); fill-opacity: 1; stroke: rgb(255, 255, 255); stroke-opacity: 1;"/><path class="point" transform="translate(303.88,263.94)" d="M4.42,0A4.42,4.42 0 1,1 0,-4.42A4.42,4.42 0 0,1 4.42,0Z" style="opacity: 0.7; stroke-width: 1px; fill: rgb(255, 153, 0); fill-opacity: 1; stroke: rgb(255, 255, 255); stroke-opacity: 1;"/><path class="point" transform="translate(177.39,282.94)" d="M3.38,0A3.38,3.38 0 1,1 0,-3.38A3.38,3.38 0 0,1 3.38,0Z" style="opacity: 0.7; stroke-width: 1px; fill: rgb(255, 153, 0); fill-opacity: 1; stroke: rgb(255, 255, 255); stroke-opacity: 1;"/><path class="point" transform="translate(366.82,276.99)" d="M4.91,0A4.91,4.91 0 1,1 0,-4.91A4.91,4.91 0 0,1 4.91,0Z" style="opacity: 0.7; stroke-width: 1px; fill: rgb(255, 153, 0); fill-opacity: 1; stroke: rgb(255, 255, 255); stroke-opacity: 1;"/><path class="point" transform="translate(237.67,316.81)" d="M2.44,0A2.44,2.44 0 1,1 0,-2.44A2.44,2.44 0 0,1 2.44,0Z" style="opacity: 0.7; stroke-width: 1px; fill: rgb(255, 153, 0); fill-opacity: 1; stroke: rgb(255, 255, 255); stroke-opacity: 1;"/><path class="point" transform="translate(344.82,275.44)" d="M3.74,0A3.74,3.74 0 1,1 0,-3.74A3.74,3.74 0 0,1 3.74,0Z" style="opacity: 0.7; stroke-width: 1px; fill: rgb(255, 153, 0); fill-opacity: 1; stroke: rgb(255, 255, 255); stroke-opacity: 1;"/><path class="point" transform="translate(278.3,173.94)" d="M0.99,0A0.99,0.99 0 1,1 0,-0.99A0.99,0.99 0 0,1 0.99,0Z" style="opacity: 0.7; stroke-width: 1px; fill: rgb(255, 153, 0); fill-opacity: 1; stroke: rgb(255, 255, 255); stroke-opacity: 1;"/><path class="point" transform="translate(124.14,304.77)" d="M9.39,0A9.39,9.39 0 1,1 0,-9.39A9.39,9.39 0 0,1 9.39,0Z" style="opacity: 0.7; stroke-width: 1px; fill: rgb(255, 153, 0); fill-opacity: 1; stroke: rgb(255, 255, 255); stroke-opacity: 1;"/><path class="point" transform="translate(436.86,242.75)" d="M2.28,0A2.28,2.28 0 1,1 0,-2.28A2.28,2.28 0 0,1 2.28,0Z" style="opacity: 0.7; stroke-width: 1px; fill: rgb(255, 153, 0); fill-opacity: 1; stroke: rgb(255, 255, 255); stroke-opacity: 1;"/><path class="point" transform="translate(332.88,291.7)" d="M4.96,0A4.96,4.96 0 1,1 0,-4.96A4.96,4.96 0 0,1 4.96,0Z" style="opacity: 0.7; stroke-width: 1px; fill: rgb(255, 153, 0); fill-opacity: 1; stroke: rgb(255, 255, 255); stroke-opacity: 1;"/><path class="point" transform="translate(369.2,246.46)" d="M0.82,0A0.82,0.82 0 1,1 0,-0.82A0.82,0.82 0 0,1 0.82,0Z" style="opacity: 0.7; stroke-width: 1px; fill: rgb(255, 153, 0); fill-opacity: 1; stroke: rgb(255, 255, 255); stroke-opacity: 1;"/><path class="point" transform="translate(489.08,130.63)" d="M10.47,0A10.47,10.47 0 1,1 0,-10.47A10.47,10.47 0 0,1 10.47,0Z" style="opacity: 0.7; stroke-width: 1px; fill: rgb(255, 153, 0); fill-opacity: 1; stroke: rgb(255, 255, 255); stroke-opacity: 1;"/><path class="point" transform="translate(583.72,268.95)" d="M0.87,0A0.87,0.87 0 1,1 0,-0.87A0.87,0.87 0 0,1 0.87,0Z" style="opacity: 0.7; stroke-width: 1px; fill: rgb(255, 153, 0); fill-opacity: 1; stroke: rgb(255, 255, 255); stroke-opacity: 1;"/><path class="point" transform="translate(225.99,223.72)" d="M2.59,0A2.59,2.59 0 1,1 0,-2.59A2.59,2.59 0 0,1 2.59,0Z" style="opacity: 0.7; stroke-width: 1px; fill: rgb(255, 153, 0); fill-opacity: 1; stroke: rgb(255, 255, 255); stroke-opacity: 1;"/><path class="point" transform="translate(235.02,259.37)" d="M10.22,0A10.22,10.22 0 1,1 0,-10.22A10.22,10.22 0 0,1 10.22,0Z" style="opacity: 0.7; stroke-width: 1px; fill: rgb(255, 153, 0); fill-opacity: 1; stroke: rgb(255, 255, 255); stroke-opacity: 1;"/><path class="point" transform="translate(593.82,232.86)" d="M1.41,0A1.41,1.41 0 1,1 0,-1.41A1.41,1.41 0 0,1 1.41,0Z" style="opacity: 0.7; stroke-width: 1px; fill: rgb(255, 153, 0); fill-opacity: 1; stroke: rgb(255, 255, 255); stroke-opacity: 1;"/><path class="point" transform="translate(245.46,213.86)" d="M1.52,0A1.52,1.52 0 1,1 0,-1.52A1.52,1.52 0 0,1 1.52,0Z" style="opacity: 0.7; stroke-width: 1px; fill: rgb(255, 153, 0); fill-opacity: 1; stroke: rgb(255, 255, 255); stroke-opacity: 1;"/><path class="point" transform="translate(314.46,209.85)" d="M5.59,0A5.59,5.59 0 1,1 0,-5.59A5.59,5.59 0 0,1 5.59,0Z" style="opacity: 0.7; stroke-width: 1px; fill: rgb(255, 153, 0); fill-opacity: 1; stroke: rgb(255, 255, 255); stroke-opacity: 1;"/><path class="point" transform="translate(272.82,237.95)" d="M3.68,0A3.68,3.68 0 1,1 0,-3.68A3.68,3.68 0 0,1 3.68,0Z" style="opacity: 0.7; stroke-width: 1px; fill: rgb(255, 153, 0); fill-opacity: 1; stroke: rgb(255, 255, 255); stroke-opacity: 1;"/><path class="point" transform="translate(213.6,305.28)" d="M1.42,0A1.42,1.42 0 1,1 0,-1.42A1.42,1.42 0 0,1 1.42,0Z" style="opacity: 0.7; stroke-width: 1px; fill: rgb(255, 153, 0); fill-opacity: 1; stroke: rgb(255, 255, 255); stroke-opacity: 1;"/><path class="point" transform="translate(326.29,251.23)" d="M6.97,0A6.97,6.97 0 1,1 0,-6.97A6.97,6.97 0 0,1 6.97,0Z" style="opacity: 0.7; stroke-width: 1px; fill: rgb(255, 153, 0); fill-opacity: 1; stroke: rgb(255, 255, 255); stroke-opacity: 1;"/><path class="point" transform="translate(334.8,331.86)" d="M1.66,0A1.66,1.66 0 1,1 0,-1.66A1.66,1.66 0 0,1 1.66,0Z" style="opacity: 0.7; stroke-width: 1px; fill: rgb(255, 153, 0); fill-opacity: 1; stroke: rgb(255, 255, 255); stroke-opacity: 1;"/><path class="point" transform="translate(172.91,310.25)" d="M2.09,0A2.09,2.09 0 1,1 0,-2.09A2.09,2.09 0 0,1 2.09,0Z" style="opacity: 0.7; stroke-width: 1px; fill: rgb(255, 153, 0); fill-opacity: 1; stroke: rgb(255, 255, 255); stroke-opacity: 1;"/><path class="point" transform="translate(582.75,112.34)" d="M2.87,0A2.87,2.87 0 1,1 0,-2.87A2.87,2.87 0 0,1 2.87,0Z" style="opacity: 0.7; stroke-width: 1px; fill: rgb(255, 153, 0); fill-opacity: 1; stroke: rgb(255, 255, 255); stroke-opacity: 1;"/><path class="point" transform="translate(285.33,213.9)" d="M5.12,0A5.12,5.12 0 1,1 0,-5.12A5.12,5.12 0 0,1 5.12,0Z" style="opacity: 0.7; stroke-width: 1px; fill: rgb(255, 153, 0); fill-opacity: 1; stroke: rgb(255, 255, 255); stroke-opacity: 1;"/><path class="point" transform="translate(246.52,291.88)" d="M4.27,0A4.27,4.27 0 1,1 0,-4.27A4.27,4.27 0 0,1 4.27,0Z" style="opacity: 0.7; stroke-width: 1px; fill: rgb(255, 153, 0); fill-opacity: 1; stroke: rgb(255, 255, 255); stroke-opacity: 1;"/><path class="point" transform="translate(285.07,248.73)" d="M4.05,0A4.05,4.05 0 1,1 0,-4.05A4.05,4.05 0 0,1 4.05,0Z" style="opacity: 0.7; stroke-width: 1px; fill: rgb(255, 153, 0); fill-opacity: 1; stroke: rgb(255, 255, 255); stroke-opacity: 1;"/><path class="point" transform="translate(351.69,180.85)" d="M2.11,0A2.11,2.11 0 1,1 0,-2.11A2.11,2.11 0 0,1 2.11,0Z" style="opacity: 0.7; stroke-width: 1px; fill: rgb(255, 153, 0); fill-opacity: 1; stroke: rgb(255, 255, 255); stroke-opacity: 1;"/><path class="point" transform="translate(571.11,120.39)" d="M1.31,0A1.31,1.31 0 1,1 0,-1.31A1.31,1.31 0 0,1 1.31,0Z" style="opacity: 0.7; stroke-width: 1px; fill: rgb(255, 153, 0); fill-opacity: 1; stroke: rgb(255, 255, 255); stroke-opacity: 1;"/><path class="point" transform="translate(442.98,131.85)" d="M6.79,0A6.79,6.79 0 1,1 0,-6.79A6.79,6.79 0 0,1 6.79,0Z" style="opacity: 0.7; stroke-width: 1px; fill: rgb(255, 153, 0); fill-opacity: 1; stroke: rgb(255, 255, 255); stroke-opacity: 1;"/><path class="point" transform="translate(256.41,335.43)" d="M5.22,0A5.22,5.22 0 1,1 0,-5.22A5.22,5.22 0 0,1 5.22,0Z" style="opacity: 0.7; stroke-width: 1px; fill: rgb(255, 153, 0); fill-opacity: 1; stroke: rgb(255, 255, 255); stroke-opacity: 1;"/><path class="point" transform="translate(471.03,259.66)" d="M1.67,0A1.67,1.67 0 1,1 0,-1.67A1.67,1.67 0 0,1 1.67,0Z" style="opacity: 0.7; stroke-width: 1px; fill: rgb(255, 153, 0); fill-opacity: 1; stroke: rgb(255, 255, 255); stroke-opacity: 1;"/><path class="point" transform="translate(221.81,231.93)" d="M4.2,0A4.2,4.2 0 1,1 0,-4.2A4.2,4.2 0 0,1 4.2,0Z" style="opacity: 0.7; stroke-width: 1px; fill: rgb(255, 153, 0); fill-opacity: 1; stroke: rgb(255, 255, 255); stroke-opacity: 1;"/><path class="point" transform="translate(365.14,301.99)" d="M13.58,0A13.58,13.58 0 1,1 0,-13.58A13.58,13.58 0 0,1 13.58,0Z" style="opacity: 0.7; stroke-width: 1px; fill: rgb(255, 153, 0); fill-opacity: 1; stroke: rgb(255, 255, 255); stroke-opacity: 1;"/><path class="point" transform="translate(527.74,94.91)" d="M1.04,0A1.04,1.04 0 1,1 0,-1.04A1.04,1.04 0 0,1 1.04,0Z" style="opacity: 0.7; stroke-width: 1px; fill: rgb(255, 153, 0); fill-opacity: 1; stroke: rgb(255, 255, 255); stroke-opacity: 1;"/><path class="point" transform="translate(262.1,306.31)" d="M3.48,0A3.48,3.48 0 1,1 0,-3.48A3.48,3.48 0 0,1 3.48,0Z" style="opacity: 0.7; stroke-width: 1px; fill: rgb(255, 153, 0); fill-opacity: 1; stroke: rgb(255, 255, 255); stroke-opacity: 1;"/><path class="point" transform="translate(337.03,171.3)" d="M0.52,0A0.52,0.52 0 1,1 0,-0.52A0.52,0.52 0 0,1 0.52,0Z" style="opacity: 0.7; stroke-width: 1px; fill: rgb(255, 153, 0); fill-opacity: 1; stroke: rgb(255, 255, 255); stroke-opacity: 1;"/><path class="point" transform="translate(345.41,188.57)" d="M4.09,0A4.09,4.09 0 1,1 0,-4.09A4.09,4.09 0 0,1 4.09,0Z" style="opacity: 0.7; stroke-width: 1px; fill: rgb(255, 153, 0); fill-opacity: 1; stroke: rgb(255, 255, 255); stroke-opacity: 1;"/><path class="point" transform="translate(262.02,332.02)" d="M2.9,0A2.9,2.9 0 1,1 0,-2.9A2.9,2.9 0 0,1 2.9,0Z" style="opacity: 0.7; stroke-width: 1px; fill: rgb(255, 153, 0); fill-opacity: 1; stroke: rgb(255, 255, 255); stroke-opacity: 1;"/><path class="point" transform="translate(270.67,292.89)" d="M3.53,0A3.53,3.53 0 1,1 0,-3.53A3.53,3.53 0 0,1 3.53,0Z" style="opacity: 0.7; stroke-width: 1px; fill: rgb(255, 153, 0); fill-opacity: 1; stroke: rgb(255, 255, 255); stroke-opacity: 1;"/><path class="point" transform="translate(550.78,284.63)" d="M7.75,0A7.75,7.75 0 1,1 0,-7.75A7.75,7.75 0 0,1 7.75,0Z" style="opacity: 0.7; stroke-width: 1px; fill: rgb(255, 153, 0); fill-opacity: 1; stroke: rgb(255, 255, 255); stroke-opacity: 1;"/><path class="point" transform="translate(396.3,220.11)" d="M7.6,0A7.6,7.6 0 1,1 0,-7.6A7.6,7.6 0 0,1 7.6,0Z" style="opacity: 0.7; stroke-width: 1px; fill: rgb(255, 153, 0); fill-opacity: 1; stroke: rgb(255, 255, 255); stroke-opacity: 1;"/><path class="point" transform="translate(463.26,352.71)" d="M1.24,0A1.24,1.24 0 1,1 0,-1.24A1.24,1.24 0 0,1 1.24,0Z" style="opacity: 0.7; stroke-width: 1px; fill: rgb(255, 153, 0); fill-opacity: 1; stroke: rgb(255, 255, 255); stroke-opacity: 1;"/><path class="point" transform="translate(292.41,262.38)" d="M7.22,0A7.22,7.22 0 1,1 0,-7.22A7.22,7.22 0 0,1 7.22,0Z" style="opacity: 0.7; stroke-width: 1px; fill: rgb(255, 153, 0); fill-opacity: 1; stroke: rgb(255, 255, 255); stroke-opacity: 1;"/><path class="point" transform="translate(264.86,221.06)" d="M2.79,0A2.79,2.79 0 1,1 0,-2.79A2.79,2.79 0 0,1 2.79,0Z" style="opacity: 0.7; stroke-width: 1px; fill: rgb(255, 153, 0); fill-opacity: 1; stroke: rgb(255, 255, 255); stroke-opacity: 1;"/><path class="point" transform="translate(518.23,112.54)" d="M3.75,0A3.75,3.75 0 1,1 0,-3.75A3.75,3.75 0 0,1 3.75,0Z" style="opacity: 0.7; stroke-width: 1px; fill: rgb(255, 153, 0); fill-opacity: 1; stroke: rgb(255, 255, 255); stroke-opacity: 1;"/><path class="point" transform="translate(286.67,269.21)" d="M6.31,0A6.31,6.31 0 1,1 0,-6.31A6.31,6.31 0 0,1 6.31,0Z" style="opacity: 0.7; stroke-width: 1px; fill: rgb(255, 153, 0); fill-opacity: 1; stroke: rgb(255, 255, 255); stroke-opacity: 1;"/><path class="point" transform="translate(309.18,333.31)" d="M4,0A4,4 0 1,1 0,-4A4,4 0 0,1 4,0Z" style="opacity: 0.7; stroke-width: 1px; fill: rgb(255, 153, 0); fill-opacity: 1; stroke: rgb(255, 255, 255); stroke-opacity: 1;"/><path class="point" transform="translate(188.11,325.59)" d="M4.1,0A4.1,4.1 0 1,1 0,-4.1A4.1,4.1 0 0,1 4.1,0Z" style="opacity: 0.7; stroke-width: 1px; fill: rgb(255, 153, 0); fill-opacity: 1; stroke: rgb(255, 255, 255); stroke-opacity: 1;"/></g><g class="text"/></g><g class="trace scatter trace023c73" style="stroke-miterlimit: 2; opacity: 1;"><g class="fills"/><g class="errorbars"/><g class="lines"/><g class="points"><path class="point" transform="translate(589.82,102.76)" d="M7.42,0A7.42,7.42 0 1,1 0,-7.42A7.42,7.42 0 0,1 7.42,0Z" style="opacity: 0.7; stroke-width: 1px; fill: rgb(16, 150, 24); fill-opacity: 1; stroke: rgb(255, 255, 255); stroke-opacity: 1;"/><path class="point" transform="translate(443.05,171.12)" d="M3.53,0A3.53,3.53 0 1,1 0,-3.53A3.53,3.53 0 0,1 3.53,0Z" style="opacity: 0.7; stroke-width: 1px; fill: rgb(16, 150, 24); fill-opacity: 1; stroke: rgb(255, 255, 255); stroke-opacity: 1;"/><path class="point" transform="translate(548.07,123.27)" d="M16.1,0A16.1,16.1 0 1,1 0,-16.1A16.1,16.1 0 0,1 16.1,0Z" style="opacity: 0.7; stroke-width: 1px; fill: rgb(16, 150, 24); fill-opacity: 1; stroke: rgb(255, 255, 255); stroke-opacity: 1;"/><path class="point" transform="translate(716.84,65.43)" d="M6.75,0A6.75,6.75 0 1,1 0,-6.75A6.75,6.75 0 0,1 6.75,0Z" style="opacity: 0.7; stroke-width: 1px; fill: rgb(16, 150, 24); fill-opacity: 1; stroke: rgb(255, 255, 255); stroke-opacity: 1;"/><path class="point" transform="translate(593.5,80.13)" d="M4.71,0A4.71,4.71 0 1,1 0,-4.71A4.71,4.71 0 0,1 4.71,0Z" style="opacity: 0.7; stroke-width: 1px; fill: rgb(16, 150, 24); fill-opacity: 1; stroke: rgb(255, 255, 255); stroke-opacity: 1;"/><path class="point" transform="translate(516.74,119.78)" d="M7.77,0A7.77,7.77 0 1,1 0,-7.77A7.77,7.77 0 0,1 7.77,0Z" style="opacity: 0.7; stroke-width: 1px; fill: rgb(16, 150, 24); fill-opacity: 1; stroke: rgb(255, 255, 255); stroke-opacity: 1;"/><path class="point" transform="translate(555.61,78.53)" d="M2.38,0A2.38,2.38 0 1,1 0,-2.38A2.38,2.38 0 0,1 2.38,0Z" style="opacity: 0.7; stroke-width: 1px; fill: rgb(16, 150, 24); fill-opacity: 1; stroke: rgb(255, 255, 255); stroke-opacity: 1;"/><path class="point" transform="translate(546.48,82.09)" d="M3.95,0A3.95,3.95 0 1,1 0,-3.95A3.95,3.95 0 0,1 3.95,0Z" style="opacity: 0.7; stroke-width: 1px; fill: rgb(16, 150, 24); fill-opacity: 1; stroke: rgb(255, 255, 255); stroke-opacity: 1;"/><path class="point" transform="translate(498.4,124.36)" d="M3.57,0A3.57,3.57 0 1,1 0,-3.57A3.57,3.57 0 0,1 3.57,0Z" style="opacity: 0.7; stroke-width: 1px; fill: rgb(16, 150, 24); fill-opacity: 1; stroke: rgb(255, 255, 255); stroke-opacity: 1;"/><path class="point" transform="translate(514.41,105.04)" d="M4.33,0A4.33,4.33 0 1,1 0,-4.33A4.33,4.33 0 0,1 4.33,0Z" style="opacity: 0.7; stroke-width: 1px; fill: rgb(16, 150, 24); fill-opacity: 1; stroke: rgb(255, 255, 255); stroke-opacity: 1;"/><path class="point" transform="translate(492.25,126.85)" d="M3.08,0A3.08,3.08 0 1,1 0,-3.08A3.08,3.08 0 0,1 3.08,0Z" style="opacity: 0.7; stroke-width: 1px; fill: rgb(16, 150, 24); fill-opacity: 1; stroke: rgb(255, 255, 255); stroke-opacity: 1;"/><path class="point" transform="translate(480.15,138.19)" d="M4.14,0A4.14,4.14 0 1,1 0,-4.14A4.14,4.14 0 0,1 4.14,0Z" style="opacity: 0.7; stroke-width: 1px; fill: rgb(16, 150, 24); fill-opacity: 1; stroke: rgb(255, 255, 255); stroke-opacity: 1;"/><path class="point" transform="translate(302.34,203.59)" d="M3.41,0A3.41,3.41 0 1,1 0,-3.41A3.41,3.41 0 0,1 3.41,0Z" style="opacity: 0.7; stroke-width: 1px; fill: rgb(16, 150, 24); fill-opacity: 1; stroke: rgb(255, 255, 255); stroke-opacity: 1;"/><path class="point" transform="translate(434.01,138.61)" d="M3.2,0A3.2,3.2 0 1,1 0,-3.2A3.2,3.2 0 0,1 3.2,0Z" style="opacity: 0.7; stroke-width: 1px; fill: rgb(16, 150, 24); fill-opacity: 1; stroke: rgb(255, 255, 255); stroke-opacity: 1;"/><path class="point" transform="translate(522.08,122.03)" d="M1.95,0A1.95,1.95 0 1,1 0,-1.95A1.95,1.95 0 0,1 1.95,0Z" style="opacity: 0.7; stroke-width: 1px; fill: rgb(16, 150, 24); fill-opacity: 1; stroke: rgb(255, 255, 255); stroke-opacity: 1;"/><path class="point" transform="translate(581.94,96.64)" d="M12.18,0A12.18,12.18 0 1,1 0,-12.18A12.18,12.18 0 0,1 12.18,0Z" style="opacity: 0.7; stroke-width: 1px; fill: rgb(16, 150, 24); fill-opacity: 1; stroke: rgb(255, 255, 255); stroke-opacity: 1;"/><path class="point" transform="translate(402.98,119.71)" d="M2.78,0A2.78,2.78 0 1,1 0,-2.78A2.78,2.78 0 0,1 2.78,0Z" style="opacity: 0.7; stroke-width: 1px; fill: rgb(16, 150, 24); fill-opacity: 1; stroke: rgb(255, 255, 255); stroke-opacity: 1;"/><path class="point" transform="translate(557.66,101.24)" d="M2.1,0A2.1,2.1 0 1,1 0,-2.1A2.1,2.1 0 0,1 2.1,0Z" style="opacity: 0.7; stroke-width: 1px; fill: rgb(16, 150, 24); fill-opacity: 1; stroke: rgb(255, 255, 255); stroke-opacity: 1;"/><path class="point" transform="translate(453.72,127.74)" d="M3.02,0A3.02,3.02 0 1,1 0,-3.02A3.02,3.02 0 0,1 3.02,0Z" style="opacity: 0.7; stroke-width: 1px; fill: rgb(16, 150, 24); fill-opacity: 1; stroke: rgb(255, 255, 255); stroke-opacity: 1;"/><path class="point" transform="translate(523.53,130.05)" d="M6.26,0A6.26,6.26 0 1,1 0,-6.26A6.26,6.26 0 0,1 6.26,0Z" style="opacity: 0.7; stroke-width: 1px; fill: rgb(16, 150, 24); fill-opacity: 1; stroke: rgb(255, 255, 255); stroke-opacity: 1;"/><path class="point" transform="translate(640.14,78.78)" d="M2.32,0A2.32,2.32 0 1,1 0,-2.32A2.32,2.32 0 0,1 2.32,0Z" style="opacity: 0.7; stroke-width: 1px; fill: rgb(16, 150, 24); fill-opacity: 1; stroke: rgb(255, 255, 255); stroke-opacity: 1;"/><path class="point" transform="translate(631.53,141.27)" d="M1.2,0A1.2,1.2 0 1,1 0,-1.2A1.2,1.2 0 0,1 1.2,0Z" style="opacity: 0.7; stroke-width: 1px; fill: rgb(16, 150, 24); fill-opacity: 1; stroke: rgb(255, 255, 255); stroke-opacity: 1;"/><path class="point" transform="translate(737.23,82.31)" d="M20.27,0A20.27,20.27 0 1,1 0,-20.27A20.27,20.27 0 0,1 20.27,0Z" style="opacity: 0.7; stroke-width: 1px; fill: rgb(16, 150, 24); fill-opacity: 1; stroke: rgb(255, 255, 255); stroke-opacity: 1;"/><path class="point" transform="translate(567.22,95.31)" d="M2.17,0A2.17,2.17 0 1,1 0,-2.17A2.17,2.17 0 0,1 2.17,0Z" style="opacity: 0.7; stroke-width: 1px; fill: rgb(16, 150, 24); fill-opacity: 1; stroke: rgb(255, 255, 255); stroke-opacity: 1;"/><path class="point" transform="translate(576.1,113.77)" d="M5.97,0A5.97,5.97 0 1,1 0,-5.97A5.97,5.97 0 0,1 5.97,0Z" style="opacity: 0.7; stroke-width: 1px; fill: rgb(16, 150, 24); fill-opacity: 1; stroke: rgb(255, 255, 255); stroke-opacity: 1;"/></g><g class="text"/></g><g class="trace scatter trace7919ea" style="stroke-miterlimit: 2; opacity: 1;"><g class="fills"/><g class="errorbars"/><g class="lines"/><g class="points"><path class="point" transform="translate(710.36,61.36)" d="M5.28,0A5.28,5.28 0 1,1 0,-5.28A5.28,5.28 0 0,1 5.28,0Z" style="opacity: 0.7; stroke-width: 1px; fill: rgb(153, 0, 153); fill-opacity: 1; stroke: rgb(255, 255, 255); stroke-opacity: 1;"/><path class="point" transform="translate(672.32,68.57)" d="M2.37,0A2.37,2.37 0 1,1 0,-2.37A2.37,2.37 0 0,1 2.37,0Z" style="opacity: 0.7; stroke-width: 1px; fill: rgb(153, 0, 153); fill-opacity: 1; stroke: rgb(255, 255, 255); stroke-opacity: 1;"/></g><g class="text"/></g></g></g><g class="overplot"/><path class="xlines-above crisp" d="M79,520.5H920" style="fill: none; stroke-width: 1px; stroke: rgb(36, 36, 36); stroke-opacity: 1;"/><path class="ylines-above crisp" d="M79.5,100V520" style="fill: none; stroke-width: 1px; stroke: rgb(36, 36, 36); stroke-opacity: 1;"/><g class="overlines-above"/><g class="xaxislayer-above"><path class="xtick ticks crisp" d="M0,521v5" transform="translate(80,0)" style="stroke: rgb(68, 68, 68); stroke-opacity: 1; stroke-width: 1px;"/><path class="xtick ticks crisp" d="M0,521v5" transform="translate(360,0)" style="stroke: rgb(68, 68, 68); stroke-opacity: 1; stroke-width: 1px;"/><path class="xtick ticks crisp" d="M0,521v5" transform="translate(640,0)" style="stroke: rgb(68, 68, 68); stroke-opacity: 1; stroke-width: 1px;"/><path class="xtick ticks crisp" d="M0,521v5" transform="translate(920,0)" style="stroke: rgb(68, 68, 68); stroke-opacity: 1; stroke-width: 1px;"/><g class="xtick"><text text-anchor="middle" x="0" y="540.4" transform="translate(80,0)" style="font-family: Rockwell; font-size: 12px; fill: rgb(36, 36, 36); fill-opacity: 1; white-space: pre; opacity: 1;">$100</text></g><g class="xtick"><text text-anchor="middle" x="0" y="540.4" style="font-family: Rockwell; font-size: 12px; fill: rgb(36, 36, 36); fill-opacity: 1; white-space: pre; opacity: 1;" transform="translate(360,0)">$1000</text></g><g class="xtick"><text text-anchor="middle" x="0" y="540.4" style="font-family: Rockwell; font-size: 12px; fill: rgb(36, 36, 36); fill-opacity: 1; white-space: pre; opacity: 1;" transform="translate(640,0)">$10k</text></g><g class="xtick"><text text-anchor="middle" x="0" y="540.4" style="font-family: Rockwell; font-size: 12px; fill: rgb(36, 36, 36); fill-opacity: 1; white-space: pre; opacity: 1;" transform="translate(920,0)">$100k</text></g></g><g class="yaxislayer-above"><path class="ytick ticks crisp" d="M79,0h-5" transform="translate(0,520)" style="stroke: rgb(68, 68, 68); stroke-opacity: 1; stroke-width: 1px;"/><path class="ytick ticks crisp" d="M79,0h-5" transform="translate(0,450)" style="stroke: rgb(68, 68, 68); stroke-opacity: 1; stroke-width: 1px;"/><path class="ytick ticks crisp" d="M79,0h-5" transform="translate(0,380)" style="stroke: rgb(68, 68, 68); stroke-opacity: 1; stroke-width: 1px;"/><path class="ytick ticks crisp" d="M79,0h-5" transform="translate(0,310)" style="stroke: rgb(68, 68, 68); stroke-opacity: 1; stroke-width: 1px;"/><path class="ytick ticks crisp" d="M79,0h-5" transform="translate(0,240)" style="stroke: rgb(68, 68, 68); stroke-opacity: 1; stroke-width: 1px;"/><path class="ytick ticks crisp" d="M79,0h-5" transform="translate(0,170)" style="stroke: rgb(68, 68, 68); stroke-opacity: 1; stroke-width: 1px;"/><path class="ytick ticks crisp" d="M79,0h-5" transform="translate(0,100)" style="stroke: rgb(68, 68, 68); stroke-opacity: 1; stroke-width: 1px;"/><g class="ytick"><text text-anchor="end" x="71.6" y="4.199999999999999" transform="translate(0,520)" style="font-family: Rockwell; font-size: 12px; fill: rgb(36, 36, 36); fill-opacity: 1; white-space: pre; opacity: 1;">30</text></g><g class="ytick"><text text-anchor="end" x="71.6" y="4.199999999999999" style="font-family: Rockwell; font-size: 12px; fill: rgb(36, 36, 36); fill-opacity: 1; white-space: pre; opacity: 1;" transform="translate(0,450)">40</text></g><g class="ytick"><text text-anchor="end" x="71.6" y="4.199999999999999" style="font-family: Rockwell; font-size: 12px; fill: rgb(36, 36, 36); fill-opacity: 1; white-space: pre; opacity: 1;" transform="translate(0,380)">50</text></g><g class="ytick"><text text-anchor="end" x="71.6" y="4.199999999999999" style="font-family: Rockwell; font-size: 12px; fill: rgb(36, 36, 36); fill-opacity: 1; white-space: pre; opacity: 1;" transform="translate(0,310)">60</text></g><g class="ytick"><text text-anchor="end" x="71.6" y="4.199999999999999" style="font-family: Rockwell; font-size: 12px; fill: rgb(36, 36, 36); fill-opacity: 1; white-space: pre; opacity: 1;" transform="translate(0,240)">70</text></g><g class="ytick"><text text-anchor="end" x="71.6" y="4.199999999999999" style="font-family: Rockwell; font-size: 12px; fill: rgb(36, 36, 36); fill-opacity: 1; white-space: pre; opacity: 1;" transform="translate(0,170)">80</text></g><g class="ytick"><text text-anchor="end" x="71.6" y="4.199999999999999" style="font-family: Rockwell; font-size: 12px; fill: rgb(36, 36, 36); fill-opacity: 1; white-space: pre; opacity: 1;" transform="translate(0,100)">90</text></g></g><g class="overaxes-above"/></g></g><g class="polarlayer"/><g class="ternarylayer"/><g class="geolayer"/><g class="funnelarealayer"/><g class="pielayer"/><g class="iciclelayer"/><g class="treemaplayer"/><g class="sunburstlayer"/><g class="glimages"/><defs id="topdefs-259649"><g class="clips"/><clipPath id="legend259649"><rect width="438" height="29" x="0" y="0"/></clipPath></defs><g class="layer-above"><g class="imagelayer"/><g class="shapelayer"><path data-index="0" fill-rule="evenodd" d="M80,247.57L920,247.57" clip-path="url(#clip259649y)" style="opacity: 0.3; stroke: rgb(0, 0, 0); stroke-opacity: 1; fill: rgb(0, 0, 0); fill-opacity: 1; stroke-dasharray: 3px, 3px; stroke-width: 1px;"/><path data-index="1" fill-rule="evenodd" d="M631.12,520L631.12,100" clip-path="url(#clip259649x)" style="opacity: 0.3; stroke: rgb(0, 0, 0); stroke-opacity: 1; fill: rgb(0, 0, 0); fill-opacity: 1; stroke-dasharray: 3px, 3px; stroke-width: 1px;"/></g></g><g class="infolayer"><g class="legend" pointer-events="all" transform="translate(482,28.999999999999964)"><rect class="bg" shape-rendering="crispEdges" style="stroke: rgb(68, 68, 68); stroke-opacity: 1; fill: rgb(255, 255, 255); fill-opacity: 1; stroke-width: 0px;" width="438" height="29" x="0" y="0"/><g class="scrollbox" transform="" clip-path="url(#legend259649)"><g class="groups" transform=""><g class="traces" transform="translate(0,14.5)" style="opacity: 1;"><text class="legendtext" text-anchor="start" x="40" y="4.680000000000001" style="font-family: Rockwell; font-size: 12px; fill: rgb(36, 36, 36); fill-opacity: 1; white-space: pre;">Asia</text><g class="layers" style="opacity: 1;"><g class="legendfill"/><g class="legendlines"/><g class="legendsymbols"><g class="legendpoints"><path class="scatterpts" transform="translate(20,0)" d="M6,0A6,6 0 1,1 0,-6A6,6 0 0,1 6,0Z" style="opacity: 0.7; stroke-width: 2px; fill: rgb(51, 102, 204); fill-opacity: 1; stroke: rgb(255, 255, 255); stroke-opacity: 1;"/></g></g></g><rect class="legendtoggle" x="0" y="-9.5" width="68.84375" height="19" style="fill: rgb(0, 0, 0); fill-opacity: 0;"/></g></g><g class="groups" transform="translate(71.34375,0)"><g class="traces" transform="translate(0,14.5)" style="opacity: 1;"><text class="legendtext" text-anchor="start" x="40" y="4.680000000000001" style="font-family: Rockwell; font-size: 12px; fill: rgb(36, 36, 36); fill-opacity: 1; white-space: pre;">Europe</text><g class="layers" style="opacity: 1;"><g class="legendfill"/><g class="legendlines"/><g class="legendsymbols"><g class="legendpoints"><path class="scatterpts" transform="translate(20,0)" d="M6,0A6,6 0 1,1 0,-6A6,6 0 0,1 6,0Z" style="opacity: 0.7; stroke-width: 2px; fill: rgb(220, 57, 18); fill-opacity: 1; stroke: rgb(255, 255, 255); stroke-opacity: 1;"/></g></g></g><rect class="legendtoggle" x="0" y="-9.5" width="85.609375" height="19" style="fill: rgb(0, 0, 0); fill-opacity: 0;"/></g></g><g class="groups" transform="translate(159.453125,0)"><g class="traces" transform="translate(0,14.5)" style="opacity: 1;"><text class="legendtext" text-anchor="start" x="40" y="4.680000000000001" style="font-family: Rockwell; font-size: 12px; fill: rgb(36, 36, 36); fill-opacity: 1; white-space: pre;">Africa</text><g class="layers" style="opacity: 1;"><g class="legendfill"/><g class="legendlines"/><g class="legendsymbols"><g class="legendpoints"><path class="scatterpts" transform="translate(20,0)" d="M6,0A6,6 0 1,1 0,-6A6,6 0 0,1 6,0Z" style="opacity: 0.7; stroke-width: 2px; fill: rgb(255, 153, 0); fill-opacity: 1; stroke: rgb(255, 255, 255); stroke-opacity: 1;"/></g></g></g><rect class="legendtoggle" x="0" y="-9.5" width="78.828125" height="19" style="fill: rgb(0, 0, 0); fill-opacity: 0;"/></g></g><g class="groups" transform="translate(240.78125,0)"><g class="traces" transform="translate(0,14.5)" style="opacity: 1;"><text class="legendtext" text-anchor="start" x="40" y="4.680000000000001" style="font-family: Rockwell; font-size: 12px; fill: rgb(36, 36, 36); fill-opacity: 1; white-space: pre;">Americas</text><g class="layers" style="opacity: 1;"><g class="legendfill"/><g class="legendlines"/><g class="legendsymbols"><g class="legendpoints"><path class="scatterpts" transform="translate(20,0)" d="M6,0A6,6 0 1,1 0,-6A6,6 0 0,1 6,0Z" style="opacity: 0.7; stroke-width: 2px; fill: rgb(16, 150, 24); fill-opacity: 1; stroke: rgb(255, 255, 255); stroke-opacity: 1;"/></g></g></g><rect class="legendtoggle" x="0" y="-9.5" width="99.78125" height="19" style="fill: rgb(0, 0, 0); fill-opacity: 0;"/></g></g><g class="groups" transform="translate(343.0625,0)"><g class="traces" transform="translate(0,14.5)" style="opacity: 1;"><text class="legendtext" text-anchor="start" x="40" y="4.680000000000001" style="font-family: Rockwell; font-size: 12px; fill: rgb(36, 36, 36); fill-opacity: 1; white-space: pre;">Oceania</text><g class="layers" style="opacity: 1;"><g class="legendfill"/><g class="legendlines"/><g class="legendsymbols"><g class="legendpoints"><path class="scatterpts" transform="translate(20,0)" d="M6,0A6,6 0 1,1 0,-6A6,6 0 0,1 6,0Z" style="opacity: 0.7; stroke-width: 2px; fill: rgb(153, 0, 153); fill-opacity: 1; stroke: rgb(255, 255, 255); stroke-opacity: 1;"/></g></g></g><rect class="legendtoggle" x="0" y="-9.5" width="92.21875" height="19" style="fill: rgb(0, 0, 0); fill-opacity: 0;"/></g></g></g><rect class="scrollbar" rx="20" ry="3" width="0" height="0" style="fill: rgb(128, 139, 164); fill-opacity: 1;" x="0" y="0"/></g><g class="g-gtitle"><text class="gtitle" x="50" y="50" text-anchor="start" dy="0em" style="font-family: Rockwell; font-size: 17px; fill: rgb(36, 36, 36); opacity: 1; font-weight: normal; white-space: pre;">Health vs Wealth 2007</text></g><g class="g-xtitle"><text class="xtitle" x="500" y="569.20625" text-anchor="middle" style="font-family: Rockwell; font-size: 14px; fill: rgb(36, 36, 36); opacity: 1; font-weight: normal; white-space: pre;">GDP per Capita (US$, price-adjusted)</text></g><g class="g-ytitle"><text class="ytitle" transform="rotate(-90,32.7,310)" x="32.7" y="310" text-anchor="middle" style="font-family: Rockwell; font-size: 14px; fill: rgb(36, 36, 36); opacity: 1; font-weight: normal; white-space: pre;">Life Expectancy (years)</text></g></g></svg>